<svg xmlns="http://www.w3.org/2000/svg" viewBox="0 0 192 192">
  <defs>
    <linearGradient id="bg" x1="0%" y1="0%" x2="100%" y2="100%">
      <stop offset="0%" stop-color="#FF8A65"/>
      <stop offset="100%" stop-color="#FF7043"/>
    </linearGradient>
  </defs>
  <!-- 배경 원 -->
  <circle cx="96" cy="96" r="96" fill="url(#bg)"/>
  <!-- 두 사람 (친구) 아이콘 -->
  <!-- 왼쪽 사람 -->
  <circle cx="72" cy="62" r="18" fill="white" opacity="0.95"/>
  <path d="M72 84c-20 0-36 14-36 32v8c0 4 3 7 7 7h58c4 0 7-3 7-7v-8c0-18-16-32-36-32z" fill="white" opacity="0.95"/>
  <!-- 오른쪽 사람 (겹침) -->
  <circle cx="116" cy="66" r="16" fill="white" opacity="0.75"/>
  <path d="M116 86c-17 0-31 12-31 28v6c0 3.5 2.5 6 6 6h50c3.5 0 6-2.5 6-6v-6c0-16-14-28-31-28z" fill="white" opacity="0.75"/>
  <!-- 하트 -->
  <path d="M96 46c-3-6-10-9-16-7-7 2-10 10-7 16l23 28 23-28c3-6 0-14-7-16-6-2-13 1-16 7z" fill="#FFE0B2" opacity="0.9"/>
  <!-- 텍스트 -->
  <text x="96" y="158" text-anchor="middle" fill="white" font-size="20" font-weight="bold" font-family="sans-serif">단짝친구</text>
</svg>
